<svg xmlns="http://www.w3.org/2000/svg" viewBox="0 0 96 96">
<rect width="96" height="96" rx="18" fill="#ffffff"/>
<g fill="#222220" transform="translate(10,9)">
<path d="M27.6597 75.8091H0V39.9219H10.0021V65.803H27.6597V75.8091Z"/>
<path d="M73.5048 75.8092H37.6323V65.803H63.4881V48.1382H73.5048V75.8092Z"/>
<path d="M10.0021 29.945H0V2.27393H35.8725V12.2948H10.0021V29.945Z"/>
<path d="M59.4404 40.9635C56.8006 40.9635 54.1901 40.6114 51.6236 39.9071C49.0571 39.2029 46.8425 38.1759 44.9946 36.8407L48.4118 30.165C49.8637 31.2214 51.5356 32.0577 53.4275 32.6886C55.334 33.3195 57.2699 33.6423 59.2644 33.6423C61.479 33.6423 63.2095 33.2021 64.4708 32.3071C65.732 31.4268 66.3773 30.2091 66.3773 28.6979C66.3773 27.2454 65.82 26.1156 64.6908 25.2793C63.5615 24.443 61.7576 24.0322 59.2644 24.0322H55.3047V18.2662L65.8347 6.20597L66.8173 9.36041H46.9012V2.27393H73.5049V7.98126L62.9749 19.9828L58.5165 17.4299H61.0683C65.732 17.4299 69.2812 18.4863 71.6863 20.5844C74.0915 22.6824 75.2941 25.3674 75.2941 28.6245C75.2941 30.7959 74.7222 32.8206 73.5782 34.7133C72.4343 36.5913 70.7037 38.1025 68.3865 39.2469C66.084 40.3913 63.1069 40.9635 59.4404 40.9635Z"/>
</g>
</svg>
