<svg width="173" height="76" viewBox="0 0 173 76" fill="none" xmlns="http://www.w3.org/2000/svg">
<g clip-path="url(#clip0_14_176)">
<path d="M91.2798 20.6137V2.27393H95.5475V17.1658H104.684V20.6284H91.2798V20.6137Z" fill="#222220"/>
<path d="M109.583 4.56293C108.82 4.56293 108.189 4.34286 107.72 3.9027C107.251 3.46255 107.016 2.91969 107.016 2.27413C107.016 1.62857 107.251 1.08571 107.72 0.64556C108.189 0.205405 108.82 0 109.583 0C110.331 0 110.947 0.205405 111.431 0.616216C111.914 1.02703 112.149 1.55521 112.149 2.20077C112.149 2.87568 111.914 3.44788 111.445 3.88803C110.976 4.32819 110.345 4.56293 109.583 4.56293ZM107.544 20.6139V6.52896H111.636V20.6286H107.544V20.6139Z" fill="#222220"/>
<path d="M120.01 20.6138L114.1 6.52881H118.294L123.222 18.6624H121.125L126.258 6.52881H130.159L124.219 20.6284H120.01V20.6138Z" fill="#222220"/>
<path d="M138.812 20.8195C137.198 20.8195 135.805 20.5114 134.603 19.8805C133.4 19.2496 132.461 18.3986 131.801 17.2982C131.141 16.2125 130.804 14.9654 130.804 13.5716C130.804 12.1778 131.127 10.9307 131.757 9.83029C132.388 8.72991 133.283 7.86427 134.427 7.24806C135.57 6.63184 136.861 6.32373 138.284 6.32373C139.662 6.32373 140.909 6.61717 142.009 7.21871C143.123 7.80558 143.989 8.65655 144.634 9.72759C145.279 10.8133 145.602 12.1044 145.602 13.6303C145.602 13.7917 145.587 13.9677 145.573 14.1732C145.558 14.3786 145.543 14.5546 145.514 14.7307H134.075V12.3392H143.373L141.774 13.0434C141.789 12.3098 141.657 11.6789 141.349 11.1361C141.055 10.5932 140.645 10.1677 140.117 9.85964C139.589 9.55153 138.988 9.40481 138.284 9.40481C137.58 9.40481 136.964 9.55153 136.436 9.85964C135.908 10.1677 135.482 10.5932 135.189 11.1361C134.896 11.6789 134.749 12.3392 134.749 13.0874V13.7183C134.749 14.5106 134.925 15.1855 135.277 15.7577C135.629 16.3299 136.113 16.7701 136.714 17.0782C137.33 17.3863 138.064 17.533 138.914 17.533C139.648 17.533 140.293 17.4156 140.865 17.1955C141.437 16.9755 141.95 16.6233 142.419 16.1685L144.59 18.5307C143.945 19.2643 143.138 19.8218 142.155 20.2179C141.217 20.6287 140.088 20.8195 138.812 20.8195Z" fill="#222220"/>
<path d="M91.2798 48.1967V29.8569H95.5475V44.7488H104.684V48.2114H91.2798V48.1967Z" fill="#222220"/>
<path d="M111.709 48.4172C110.624 48.4172 109.7 48.2264 108.908 47.8597C108.116 47.4782 107.515 46.9793 107.09 46.3338C106.664 45.6882 106.444 44.9693 106.444 44.1624C106.444 43.3407 106.65 42.6071 107.06 41.9763C107.471 41.3454 108.116 40.8465 109.011 40.4944C109.905 40.1423 111.064 39.9662 112.516 39.9662H116.241V42.3284H112.941C111.988 42.3284 111.328 42.4898 110.961 42.7979C110.609 43.106 110.419 43.5021 110.419 43.9716C110.419 44.4998 110.624 44.9106 111.035 45.2187C111.445 45.5268 112.003 45.6736 112.692 45.6736C113.396 45.6736 114.012 45.5122 114.569 45.2041C115.112 44.8959 115.508 44.4118 115.728 43.7662L116.358 45.6736C116.065 46.5539 115.522 47.2288 114.73 47.6983C113.953 48.1678 112.941 48.4172 111.709 48.4172ZM115.992 48.1971V45.4535L115.728 44.8519V39.9222C115.728 39.0419 115.464 38.367 114.936 37.8828C114.408 37.3987 113.586 37.1492 112.487 37.1492C111.739 37.1492 111.005 37.2666 110.272 37.5014C109.553 37.7361 108.923 38.0589 108.395 38.455L106.958 35.594C107.72 35.0365 108.644 34.611 109.729 34.3176C110.815 34.0241 111.915 33.8921 113.029 33.8921C115.17 33.8921 116.842 34.4056 118.03 35.418C119.218 36.4303 119.805 38.0149 119.805 40.157V48.1971H115.992Z" fill="#222220"/>
<path d="M128.941 48.4169C127.754 48.4169 126.712 48.1968 125.803 47.742C124.894 47.2871 124.19 46.5829 123.676 45.6439C123.163 44.7049 122.914 43.5165 122.914 42.0786V34.1118H127.006V41.4477C127.006 42.6362 127.255 43.5018 127.754 44.0593C128.252 44.6169 128.956 44.881 129.865 44.881C130.496 44.881 131.053 44.7342 131.537 44.4555C132.021 44.1767 132.417 43.7512 132.696 43.1937C132.989 42.6362 133.121 41.9319 133.121 41.0956V34.0972H137.184V48.1968H133.312V44.2941L134.016 45.4532C133.532 46.4362 132.828 47.1698 131.919 47.6686C131.009 48.1674 130.012 48.4169 128.941 48.4169Z" fill="#222220"/>
<path d="M146.423 47.5222C145.147 47.5222 143.974 47.2434 142.918 46.6712C141.847 46.099 141.011 45.3067 140.381 44.2944C139.75 43.2674 139.442 42.0789 139.442 40.7145C139.442 39.3353 139.75 38.1322 140.381 37.1199C141.011 36.0928 141.862 35.3152 142.918 34.743C143.989 34.1855 145.147 33.9067 146.423 33.9067C147.64 33.9067 148.711 34.1415 149.606 34.6257C150.5 35.1098 151.204 35.8581 151.717 36.8704C152.231 37.8828 152.48 39.1739 152.48 40.7145C152.48 42.2697 152.231 43.5461 151.717 44.5585C151.204 45.5562 150.515 46.3044 149.606 46.8033C148.711 47.2728 147.655 47.5222 146.423 47.5222ZM147.083 53.4936C145.763 53.4936 144.472 53.3322 143.241 53.0094C142.009 52.6867 140.982 52.2025 140.161 51.5569L141.789 48.5932C142.405 49.1067 143.153 49.5029 144.047 49.7816C144.942 50.0751 145.851 50.2071 146.79 50.2071C148.227 50.2071 149.268 49.8843 149.928 49.2388C150.588 48.5932 150.925 47.6249 150.925 46.3631V44.265L151.189 40.6998L151.116 37.1052V34.0975H154.988V45.8349C154.988 48.4318 154.313 50.3685 152.949 51.6156C151.585 52.8774 149.635 53.4936 147.083 53.4936ZM147.259 44.1917C147.978 44.1917 148.608 44.045 149.166 43.7515C149.723 43.4581 150.163 43.0473 150.471 42.5191C150.779 41.9909 150.94 41.3894 150.94 40.7145C150.94 40.0102 150.779 39.4087 150.471 38.8952C150.163 38.3816 149.723 37.9855 149.166 37.7067C148.608 37.428 147.963 37.2813 147.259 37.2813C146.555 37.2813 145.924 37.428 145.367 37.7067C144.795 37.9855 144.355 38.3816 144.033 38.8952C143.71 39.4087 143.549 40.0249 143.549 40.7145C143.549 41.3894 143.71 42.0056 144.033 42.5191C144.355 43.0473 144.795 43.4581 145.367 43.7515C145.939 44.045 146.57 44.1917 147.259 44.1917Z" fill="#222220"/>
<path d="M166.823 33.9066C167.938 33.9066 168.935 34.1267 169.815 34.5815C170.695 35.0217 171.384 35.7113 171.897 36.6209C172.411 37.5306 172.66 38.719 172.66 40.1421V48.2116H168.568V40.773C168.568 39.6433 168.319 38.807 167.82 38.2641C167.322 37.7213 166.618 37.4572 165.709 37.4572C165.063 37.4572 164.477 37.6039 163.963 37.8827C163.45 38.1614 163.054 38.5723 162.761 39.1151C162.467 39.658 162.335 40.3769 162.335 41.2572V48.2263H158.244V28.7715H162.335V38.0147L161.426 36.841C161.925 35.902 162.658 35.1684 163.597 34.6696C164.55 34.156 165.621 33.9066 166.823 33.9066Z" fill="#222220"/>
<path d="M91.2798 75.7944V57.4546H95.5475V72.3318H104.684V75.7944H91.2798Z" fill="#222220"/>
<path d="M113.484 76.0001C112.002 76.0001 110.683 75.692 109.509 75.0612C108.351 74.4303 107.441 73.5793 106.767 72.4789C106.107 71.3932 105.77 70.1461 105.77 68.7523C105.77 67.3438 106.107 66.082 106.767 64.9963C107.427 63.9106 108.336 63.0449 109.509 62.4287C110.668 61.8125 111.988 61.5044 113.484 61.5044C114.98 61.5044 116.314 61.8125 117.487 62.4287C118.661 63.0449 119.57 63.9106 120.23 64.9963C120.89 66.082 121.227 67.3438 121.227 68.7523C121.227 70.1608 120.89 71.4225 120.23 72.4936C119.57 73.5793 118.646 74.4303 117.487 75.0612C116.314 75.692 114.98 76.0001 113.484 76.0001ZM113.484 72.6403C114.188 72.6403 114.804 72.4936 115.332 72.1855C115.86 71.8774 116.285 71.4372 116.608 70.8357C116.93 70.2488 117.092 69.5445 117.092 68.7376C117.092 67.916 116.93 67.2117 116.608 66.6395C116.285 66.0673 115.86 65.6272 115.332 65.3191C114.804 65.011 114.188 64.8642 113.513 64.8642C112.838 64.8642 112.222 65.011 111.68 65.3191C111.137 65.6272 110.712 66.0673 110.389 66.6395C110.067 67.2117 109.905 67.916 109.905 68.7376C109.905 69.5445 110.067 70.2341 110.389 70.8357C110.712 71.4225 111.137 71.8774 111.68 72.1855C112.208 72.4936 112.809 72.6403 113.484 72.6403Z" fill="#222220"/>
<path d="M127.798 75.7944L121.873 61.6948H126.067L130.995 73.8284H128.897L134.03 61.6948H137.932L131.992 75.7944H127.798Z" fill="#222220"/>
<path d="M146.599 76.0001C144.986 76.0001 143.593 75.692 142.39 75.0612C141.187 74.4303 140.249 73.5793 139.589 72.4789C138.929 71.3932 138.592 70.1461 138.592 68.7523C138.592 67.3585 138.914 66.1113 139.545 65.011C140.175 63.9106 141.07 63.0449 142.214 62.4287C143.358 61.8125 144.649 61.5044 146.071 61.5044C147.45 61.5044 148.696 61.7978 149.796 62.3994C150.911 62.9862 151.776 63.8372 152.421 64.9083C153.067 65.994 153.389 67.2851 153.389 68.811C153.389 68.9724 153.375 69.1484 153.36 69.3538C153.345 69.5592 153.331 69.7353 153.301 69.9114H141.862V67.5345H151.16L149.591 68.2241C149.606 67.4905 149.474 66.8596 149.166 66.3168C148.872 65.7739 148.462 65.3484 147.934 65.0403C147.406 64.7322 146.804 64.5855 146.1 64.5855C145.396 64.5855 144.781 64.7322 144.253 65.0403C143.725 65.3484 143.299 65.7739 143.006 66.3168C142.713 66.8596 142.566 67.5198 142.566 68.2681V68.899C142.566 69.6913 142.742 70.3662 143.094 70.9384C143.446 71.5106 143.93 71.9507 144.531 72.2588C145.147 72.5669 145.88 72.7137 146.731 72.7137C147.464 72.7137 148.11 72.5963 148.682 72.3762C149.254 72.1561 149.767 71.804 150.236 71.3492L152.407 73.7114C151.761 74.4449 150.955 75.0025 149.972 75.3986C149.004 75.8094 147.875 76.0001 146.599 76.0001Z" fill="#222220"/>
<path d="M27.6597 75.8091H0V39.9219H10.0021V65.803H27.6597V75.8091Z" fill="#222220"/>
<path d="M73.5048 75.8092H37.6323V65.803H63.4881V48.1382H73.5048V75.8092Z" fill="#222220"/>
<path d="M10.0021 29.945H0V2.27393H35.8725V12.2948H10.0021V29.945Z" fill="#222220"/>
<path d="M59.4404 40.9635C56.8006 40.9635 54.1901 40.6114 51.6236 39.9071C49.0571 39.2029 46.8425 38.1759 44.9946 36.8407L48.4118 30.165C49.8637 31.2214 51.5356 32.0577 53.4275 32.6886C55.334 33.3195 57.2699 33.6423 59.2644 33.6423C61.479 33.6423 63.2095 33.2021 64.4708 32.3071C65.732 31.4268 66.3773 30.2091 66.3773 28.6979C66.3773 27.2454 65.82 26.1156 64.6908 25.2793C63.5615 24.443 61.7576 24.0322 59.2644 24.0322H55.3047V18.2662L65.8347 6.20597L66.8173 9.36041H46.9012V2.27393H73.5049V7.98126L62.9749 19.9828L58.5165 17.4299H61.0683C65.732 17.4299 69.2812 18.4863 71.6863 20.5844C74.0915 22.6824 75.2941 25.3674 75.2941 28.6245C75.2941 30.7959 74.7222 32.8206 73.5782 34.7133C72.4343 36.5913 70.7037 38.1025 68.3865 39.2469C66.084 40.3913 63.1069 40.9635 59.4404 40.9635Z" fill="#222220"/>
</g>
<defs>
<clipPath id="clip0_14_176">
<rect width="172.66" height="76" fill="white"/>
</clipPath>
</defs>
</svg>
